<?xml version="1.0" standalone="no"?><!DOCTYPE svg PUBLIC "-//W3C//DTD SVG 1.1//EN" "http://www.w3.org/Graphics/SVG/1.1/DTD/svg11.dtd"><svg class="icon" width="200px" height="200.00px" viewBox="0 0 1024 1024" version="1.1" xmlns="http://www.w3.org/2000/svg"><path fill="#515151" d="M962.2 874.94c0.33-0.37 0.65-0.75 1-1.12s0.72-0.82 1.07-1.24 0.81-1 1.21-1.54c0.23-0.3 0.48-0.6 0.71-0.91 0.42-0.57 0.82-1.15 1.22-1.72 0.19-0.27 0.39-0.54 0.57-0.82 0.4-0.59 0.77-1.19 1.15-1.79 0.18-0.28 0.36-0.56 0.53-0.85 0.35-0.59 0.69-1.18 1-1.78 0.18-0.32 0.36-0.64 0.53-1 0.3-0.56 0.58-1.13 0.87-1.69 0.19-0.38 0.38-0.75 0.56-1.14s0.47-1 0.7-1.55 0.4-0.9 0.59-1.36 0.36-0.92 0.54-1.38 0.41-1.05 0.6-1.59 0.27-0.8 0.41-1.21c0.2-0.6 0.4-1.2 0.58-1.8 0.11-0.35 0.2-0.71 0.3-1.06 0.19-0.66 0.37-1.31 0.53-2 0.08-0.32 0.15-0.65 0.22-1 0.16-0.69 0.32-1.38 0.45-2.07 0.06-0.33 0.12-0.66 0.18-1 0.12-0.69 0.25-1.38 0.35-2.08 0.06-0.38 0.1-0.77 0.14-1.15 0.08-0.64 0.17-1.29 0.23-1.94s0.08-1.1 0.12-1.65 0.08-1 0.11-1.47q0.08-1.58 0.08-3.17v-0.84c0-0.75 0-1.5-0.06-2.25 0-0.33 0-0.66-0.07-1 0-0.71-0.09-1.43-0.16-2.14 0-0.28-0.07-0.55-0.1-0.83-0.09-0.77-0.18-1.54-0.29-2.31 0-0.19-0.06-0.37-0.09-0.55-0.14-0.86-0.28-1.72-0.45-2.57l-0.05-0.24a63.61 63.61 0 0 0-13.19-27.76l-0.32-0.37c-0.56-0.68-1.14-1.35-1.73-2s-1.38-1.48-2.09-2.2l-0.11-0.12-1.29-1.29-104.12-104.02-0.13-0.12-13.13-13.13a31.79 31.79 0 0 1-9.37-22.63V416a319.78 319.78 0 0 0-32.4-140.22c-0.27-0.68-0.56-1.35-0.88-2A320.16 320.16 0 0 0 729 180.84l-1.17-1.08q-1.69-1.55-3.41-3.07c-0.84-0.75-1.69-1.49-2.54-2.22s-1.68-1.47-2.53-2.19q-2.74-2.34-5.54-4.62l-0.06-0.05q-3-2.45-6.09-4.83l-0.32-0.25A319.88 319.88 0 0 0 608 110.6V96a96 96 0 0 0-96-96 96 96 0 0 0-96 96v14.6a319.88 319.88 0 0 0-99.38 51.93l-0.33 0.25q-3.07 2.38-6.09 4.82l-0.06 0.05q-2.8 2.28-5.54 4.62c-0.85 0.73-1.69 1.47-2.54 2.2s-1.69 1.47-2.53 2.22q-1.72 1.52-3.41 3.08l-1.12 1.07a320.16 320.16 0 0 0-69.68 92.92c-0.32 0.67-0.61 1.34-0.88 2A319.78 319.78 0 0 0 192 416v229.49a31.79 31.79 0 0 1-9.37 22.63l-13.13 13.13-0.13 0.12L65.29 785.46 64 786.75l-0.11 0.12q-1.07 1.08-2.09 2.2c-0.6 0.66-1.17 1.33-1.73 2l-0.32 0.37a63.61 63.61 0 0 0-13.19 27.76l-0.05 0.24c-0.17 0.85-0.32 1.71-0.45 2.57 0 0.18-0.07 0.37-0.09 0.55-0.11 0.77-0.2 1.54-0.29 2.31 0 0.28-0.07 0.55-0.1 0.83-0.07 0.71-0.12 1.43-0.16 2.14 0 0.33-0.05 0.66-0.07 1 0 0.75 0 1.5-0.06 2.25v0.84q0 1.58 0.08 3.17c0 0.49 0.07 1 0.11 1.47s0.07 1.1 0.12 1.65 0.15 1.29 0.23 1.94c0 0.38 0.09 0.77 0.14 1.15 0.1 0.7 0.23 1.39 0.35 2.08 0.06 0.33 0.11 0.66 0.18 1 0.14 0.7 0.29 1.39 0.45 2.07 0.08 0.33 0.14 0.65 0.22 1 0.16 0.66 0.35 1.32 0.53 2 0.1 0.35 0.19 0.71 0.3 1.06 0.18 0.61 0.38 1.21 0.58 1.8 0.13 0.4 0.26 0.81 0.41 1.21l0.6 1.59c0.2 0.53 0.35 0.92 0.54 1.38s0.39 0.9 0.59 1.36 0.46 1 0.7 1.55 0.37 0.76 0.56 1.14c0.28 0.57 0.57 1.13 0.87 1.69 0.17 0.32 0.36 0.64 0.53 1 0.33 0.6 0.67 1.19 1 1.78 0.17 0.29 0.35 0.57 0.53 0.85 0.37 0.6 0.75 1.2 1.15 1.79 0.19 0.28 0.38 0.54 0.57 0.82 0.4 0.58 0.8 1.16 1.22 1.72 0.23 0.31 0.47 0.61 0.71 0.91 0.4 0.51 0.79 1 1.21 1.54s0.71 0.83 1.07 1.24 0.64 0.76 1 1.12q1.06 1.17 2.18 2.29l0.61 0.58c0.54 0.52 1.08 1 1.63 1.55l0.74 0.62c0.54 0.47 1.07 0.94 1.62 1.4l0.68 0.55c0.6 0.48 1.2 1 1.82 1.42l0.49 0.35c0.69 0.51 1.39 1 2.11 1.48l0.28 0.13a63.61 63.61 0 0 0 28.93 10.3l0.83 0.06c0.77 0.07 1.53 0.13 2.31 0.17s1.42 0 2.14 0.06h215c14.86 72.94 79.51 128 156.78 128H544c77.27 0 141.92-55.06 156.78-128h215c0.71 0 1.43 0 2.14-0.06s1.54-0.11 2.31-0.17l0.83-0.06a63.61 63.61 0 0 0 28.94-10.3l0.24-0.15c0.71-0.48 1.41-1 2.11-1.48l0.49-0.35c0.62-0.46 1.22-0.94 1.82-1.42l0.67-0.52c0.55-0.45 1.09-0.93 1.62-1.4l0.76-0.66c0.56-0.51 1.09-1 1.63-1.55l0.61-0.58q1.18-1.16 2.25-2.33zM512 96q-16.11 0-32 1.57V96a32 32 0 0 1 18.13-28.84l0.14-0.06A32 32 0 0 1 544 96v1.57Q528.11 96 512 96z m-32 864a96.16 96.16 0 0 1-90.49-64h245A96.16 96.16 0 0 1 544 960h-64zM109.25 832l1.28-1.29 117.35-117.34A95.37 95.37 0 0 0 256 645.49V416a256 256 0 0 1 128.46-222l0.48-0.27q2.11-1.21 4.26-2.38l1.32-0.72q2-1.08 4-2.12 1.77-0.91 3.55-1.79l1.23-0.61a256.06 256.06 0 0 1 76.44-23.54l0.47-0.07q3.94-0.55 7.89-1l0.8-0.09 2.88-0.28 3.11-0.28 2.29-0.18c1.81-0.13 3.62-0.25 5.45-0.34h1.08q2.48-0.12 5-0.19h1.4c2 0 3.93-0.07 5.9-0.07s3.93 0 5.89 0.07h1.42q2.48 0.07 4.95 0.19h1.1c1.82 0.09 3.63 0.21 5.43 0.34l2.31 0.18 3.09 0.27 2.9 0.28 0.69 0.08q4 0.44 8 1l0.44 0.06a256.06 256.06 0 0 1 76.45 23.54l1.22 0.61q1.8 0.89 3.58 1.81 2 1 4 2.11l1.33 0.73q2.14 1.17 4.25 2.38l0.48 0.27A256 256 0 0 1 768 416v229.49a95.37 95.37 0 0 0 28.12 67.88l117.34 117.34 1.28 1.29H109.25z" /></svg>